<svg xmlns="http://www.w3.org/2000/svg" viewBox="0 0 1051 270.99"><defs><style>.cls-1{fill:#fff;}.cls-1,.cls-2,.cls-3,.cls-4{fill-rule:evenodd;}.cls-2{fill:#6ab9e7;}.cls-3{fill:#397bbe;}.cls-4{fill:#273d84;}</style></defs><g id="art04_beli" data-name="art04 beli"><path class="cls-1" d="M545.71,21.44c-.61.61-4.28,1.37-8.41,2-7.64.92-23.69,6.27-31.94,10.7-2.45,1.38-7.18,3.82-10.55,5.5-5.5,2.91-18.8,15.14-26.13,24.15-4,4.74-11.77,21.25-15.13,31.34-6.24,18.69-2.09,38.66,5.54,56.39a78.87,78.87,0,0,0,19.68,26.9c16,14.67,28.12,20.94,52.27,27.36,22.77,6,61,2.9,79.78-6.57,30.87-15.44,50.59-36.23,55.48-58.39,4.28-19,4.89-22.16,4.89-23.69,0-1.07-9.94-1.52-32.25-1.22l-32.25.46-4,10.39c-4.59,12.69-9.78,18.19-20.94,22.32-14.07,5.2-30,2.86-43.45-3.13s-20.09-16.5-19.22-31.42c.94-15.86,9.44-28.1,24.16-33.87,10.84-4.26,22.18-6.46,33.26-2.2,9.11,3.5,18.74,9.83,23.44,18.65l2.14,4,32.24-.92c17.73-.46,32.56-1.22,33-1.68,1.22-1.23-7.64-23.23-13.3-33-9.32-16.5-35-33.77-60.83-41.11C584.68,21.9,547.39,19.76,545.71,21.44Z"></path><path class="cls-1" d="M939.42,23.73a86.51,86.51,0,0,0-35.17,19C887,58,884.32,84,883.92,105.54c-.24,13.08-.29,26.16-.29,39.24v61h59.3l.61-59.3c.46-59,.46-59.15,4-64,5.65-8,15.59-8.71,20.17-1.68,2,2.9,2.45,13.45,2.75,64.19l.62,60.83h60.82V144.17c0-26.71,2.21-54.77-5.52-80.74-4.65-15.64-17-25.18-31-32.52C975.79,20.67,959.9,18.69,939.42,23.73Z"></path><path class="cls-1" d="M694.57,77.68c.27,20.86.46,41.83,2.35,62.62.91,10,1.92,20.91,6.33,30.13,9.26,19.36,30.69,31,50.62,35.94,8.1,2,18.8,2.45,58.39,2.45h48.45v-53.5H812.87c-35.92,0-48.45-.46-50.44-2-6.42-4.74-7.18-12.38-7.18-71.53V25.41H694Z"></path><polygon class="cls-1" points="784.29 84.25 784.29 143.1 813.33 143.1 842.37 143.1 842.37 84.25 842.37 25.41 813.33 25.41 784.29 25.41 784.29 84.25"></polygon><path class="cls-1" d="M472.19,214c-6.42,2.75-15,13.61-15,18.8,0,7,7.33,12.69,16.35,12.69,8.56,0,7.95-1.07-2.14-3.67-6.42-1.68-7.34-2.45-7.8-6.11-.91-7,2.3-12.08,10.24-16.66,4.13-2.3,8.56-4.13,9.94-4.13s2.44-.76,2.44-1.53C486.25,211.26,477.24,211.72,472.19,214Z"></path><path class="cls-1" d="M897.85,214.62c-2,1.69-4.44,6.88-6.27,14.07-1.83,6.26-3.67,12.68-4.13,14.06-.91,2.14-.3,2.75,2.91,2.75,3.51,0,4-.61,4-5.05.15-14.36,6.11-25.52,13.91-25.52,7.64,0,8.4,3.21,4,17.58l-3.82,13h3.52c4,0,5.35-3.37,5.35-14.06a18.08,18.08,0,0,1,1-6.69,22.72,22.72,0,0,0,1.41-6.51,6.56,6.56,0,0,0-3.32-5.43,16,16,0,0,0-5.9-1.06C906.43,211.62,901.13,212,897.85,214.62Z"></path><path class="cls-1" d="M489,226.7c-2.45,2.9-6.42,17.12-5.2,18.34,1.68,1.68,4-1.53,4.89-6.88,1.07-6.42,7.18-12.38,12.69-12.53,3.2,0,3.51.46,2.75,6.42a55.14,55.14,0,0,1-1.84,10.08c-1.07,3.21-.76,3.52,2.45,3.06,3.05-.3,4-1.83,5.5-8.86,1.07-4.59,1.68-9.33,1.22-10.4C510.4,222.88,491.91,223.49,489,226.7Z"></path><path class="cls-1" d="M521,226.39c-1.38,1.23-3.21,2.3-4.13,2.3-1.07,0-1.53,2.9-1.22,7.94l.46,8.1,9,.46c7.64.46,9.47,0,12.68-3.06,3.06-2.75,3.52-4.58,3.21-10.39l-.46-6.88-8.56-.45C525.69,224.1,522.63,224.56,521,226.39Zm14.67,1.38c4,3,3.21,7.79-2.14,12.23s-6.42,4.73-10.7,2.44c-4-2.14-3.82-8.86.46-13.3C526.91,225.17,531.49,224.71,535.62,227.77Z"></path><path class="cls-1" d="M551.82,226.7c-3.51,4.43-7.33,13-9,20.33-1.83,8.86-1.83,9.17.46,9.17,1.23,0,2.91-2.6,3.67-5.81.92-3.06,2.6-8.87,3.67-12.69,3.82-13.91,20.94-16.81,19.41-3.36-.61,5.66-10.09,10.7-15,8.1-2.44-1.38-3.06-1.22-3.06.76,0,1.69,1.84,2.3,7.65,2.3,10.24,0,14.06-4,13.45-13.76l-.46-6.88-9.33-.45C556,224.1,553.66,224.56,551.82,226.7Z"></path><path class="cls-1" d="M583.76,225.17c5.66.76,5.66.76,2.76,6.27a57.2,57.2,0,0,0-3.21,9c-.92,4.44-.62,5.05,2,5.05s3.37-1.68,4.89-9.78c1.84-9.94,2.52-9.93,9.46-10.57,3.06-.31.39-1.13-8.62-1.13C581,223.78,577.8,224.58,583.76,225.17Z"></path><path class="cls-1" d="M607.45,228.38c-8.86,7.49-5,17.27,6.88,17l5.66-.15-4.59-1.53c-5.35-2-8.4-4.73-8.4-7.79s9.32-9.78,14.67-10.7c3.21-.46,2.6-.61-2.45-.76C613.72,224.1,611.43,225,607.45,228.38Z"></path><path class="cls-1" d="M625.64,231.28c-1.07,4.13-2.29,8.87-2.75,10.7-.76,2.75-.3,3.52,2.14,3.52,2.14,0,3.67-1.53,4.89-5.35.92-2.91,2.29-5.35,3.06-5.35,4,0,6.11,2.29,6.11,6.26,0,6,3.52,5.66,5.81-.45,1.38-4,1.38-5.05-.61-6.42-2-1.53-1.68-2.3,2-5.5,3.82-3.37,4-3.83,1.37-4.28a4.89,4.89,0,0,0-4.58,1.52c-2.3,3.21-8.41,6.12-10.09,5-.92-.46-1.53-2.29-1.53-4C631.45,221.35,627.48,224.25,625.64,231.28Z"></path><path class="cls-1" d="M650.4,234.34c-2.9,9-3,10.55-1.07,12.53s2.45,2,3.67-.15c.61-1.22,5-5.5,9.63-9.48l8.41-7.18-.92,7.8c-1.22,10.54,1.37,9.62,5.35-2,4.12-11.77,4.12-11.77-.31-11.77-2.29,0-6.72,2.9-11.77,7.64-8.71,7.95-10.39,7.49-7.64-2.14,1.07-4.12.92-5.5-.3-5.5S652.08,228.69,650.4,234.34Z"></path><path class="cls-1" d="M696.56,226.7c-.31,1.53-1.22,6.42-1.68,10.7l-1.07,8.1h8.71c7.34,0,8.86.46,9.48,3.05,1.07,4,6.57,4.13,6.57.16,0-1.68-.92-3.21-1.84-3.52-1.52-.61-1.37-1.37.46-3.21,2.45-2.29,5.2-16,3.67-17.57-1.22-1.23-2.29.45-6.11,9.93-3.37,8.1-4.13,8.86-8.72,9.32-8.71.61-10.08-1.53-6.11-9.63,1.84-3.82,3.36-7.64,3.36-8.4C703.28,223,697.48,224,696.56,226.7Z"></path><path class="cls-1" d="M728,229.3c-6.42,7-6.26,10.54.77,15.43,3.21,2.14,6.26,3.82,6.88,3.82s4.43-2.14,8.71-4.73c6-3.82,7.33-5.35,6.11-6.88s-2.9-.92-8.1,2.75c-5.65,3.82-7.18,4.28-9.93,2.9-4.9-2.75-4.28-9.93,1.22-13.75,4.74-3.36,10.09-4.13,11.61-1.68.46.91-.3,2-1.83,2.44-8.1,2.6-13.14,5.5-11.31,6.73,1.22.61,4.59-.31,8.41-2.45,3.36-2,7.49-3.67,9-3.67,1.84,0,2.6-.91,2.3-2.75-.46-2-2.3-2.75-9.79-3.05C733.24,224,732.78,224.25,728,229.3Z"></path><path class="cls-1" d="M755.71,234.8c-3.06,10.39-3.06,10.7-.31,10.7,2.14,0,2.91-1.07,2.91-3.82,0-3.52.45-3.82,7.64-3.82s7.64.3,7.64,3.82c0,4.43,4,5.35,5,1.07.46-1.38,1.53-5.81,2.6-9.94,1.83-7,2.14-7.18,7.8-7.18,6.57,0,6.87.46,3.82,7.79-4.44,11-4.44,12.08-.46,12.08,3.21,0,3.67-.92,5-9.63l1.38-9.48,6.11-.91c3.82-.62,0-1.07-10.24-1.23l-16.51-.15v3.82c0,3.52-.45,3.82-7.64,3.82s-7.64-.3-7.64-3.82C762.89,220.13,758.76,224.1,755.71,234.8Z"></path><path class="cls-1" d="M813.48,228.53c-3.21,4.43-4.13,9.94-2.29,14.52.76,2,3.36,2.45,12.38,2.45h11.31l-.46-10.4L834,224.86l-8.56-.45C817.3,224,816.54,224.25,813.48,228.53Zm16.35-1.07c2,2,2.3,9.63.61,13.45-1.22,2.6-6.87,3.67-12.07,2.29-2.9-.61-3.51-1.83-3.51-6.72,0-4.43.91-6.57,3.51-8.25C822.5,225.32,827.39,225,829.83,227.46Z"></path><path class="cls-1" d="M846.49,228.53c-2.29,2.45-4.12,6-4.12,7.64,0,1.84-1.38,7-2.91,11.62-2.9,8.1-2.9,8.41-.15,8.41,3.21,0,4.13-2,5.5-12.08,1.22-9.63,5.5-16.66,10.7-17.88,5.35-1.38,8.86.92,9.48,6.27.91,7.64-11,14.82-16.2,9.62-1.38-1.37-1.84-1.22-1.84.77s1.53,2.6,8.25,2.6c7.65,0,8.56-.46,11.16-4.59,1.38-2.6,3.21-4.58,3.82-4.58s1.23-1.68,1.23-3.52c0-5.65-4.59-8.71-13.15-8.71C852,224.1,850.16,224.86,846.49,228.53Z"></path><path class="cls-1" d="M923.52,233.58c-3.82,11.15-4,13.29-1.07,14.36,1.23.46,5.66-3.05,10.85-8.4,4.9-5.2,9.17-9,9.63-8.56.31.3-.46,3.36-1.83,6.88-3.06,7.64-3.06,7.64.46,7.64,2.14,0,3.21-1.84,4.58-8.71a101.07,101.07,0,0,0,1.68-10.7c0-3.52-3.82-2.14-10.08,3.66-3.21,3.21-7.34,6.88-8.87,8.11-3.21,2.44-3.21,3.36-.15-9.63C930.86,220.13,926.73,224.1,923.52,233.58Z"></path><path class="cls-1" d="M956.69,228.23A20.56,20.56,0,0,0,952,239.38c-.61,3.82-1.38,9.17-2,11.77-.61,3.06-.3,5,.61,5s2-4,2.45-8.87c1.53-12.38,2-13.3,8-17.88,7.64-5.81,12.84-4.43,12.84,3.51,0,4.74-.77,6.27-4.74,8.56-2.91,1.68-6,2.45-8.41,1.84-2.14-.61-3.67-.31-3.67.61,0,.76,3.21,1.53,7.34,1.53,7.18-.16,14-4.22,14-7.58l.09-.06c2.14,0,1.84-9.79-.3-11.93-1.07-1.07-5.35-1.83-9.63-1.83C961.88,224.1,960.05,224.71,956.69,228.23Z"></path><path class="cls-1" d="M988.63,227.16c-2.75,2.29-4,4.58-3.82,8.1,0,9.63.61,10.24,10.24,10.24,11.46,0,15.44-3.67,15.44-14.22V224.1h-9C994.9,224.1,991.54,224.86,988.63,227.16Zm15.44.3c2.75,2.75,2.29,9.63-.77,12.23-4.28,3.67-7.79,4.28-11.92,2.44-5-2.29-4.89-7.64.31-12.68C996.27,225.32,1001.16,224.56,1004.07,227.46Z"></path><path class="cls-1" d="M1019.35,225.17c5.66.76,5.66.31,2.45,16.35-.77,3.21-.46,4.13,1.07,3.67,1.07-.3,2.6-3.36,3.21-6.72,2.59-12.84,2.44-12.69,8.56-13.3,3-.31-.16-.61-7.34-.61S1016.6,224.86,1019.35,225.17Z"></path><path class="cls-2" d="M420.86,180.39a8.48,8.48,0,0,0,1.13-6.22,116.94,116.94,0,0,0-4.6-12.2c-2.9-6.7-4.9-9.5-12.4-17-10.6-10.7-15.5-17.5-14.2-19.6a9.36,9.36,0,0,0,.9-4.2c0-2.9,1.4-5.9,4.2-8.8,1.5-1.6,2.3-4.3,3-10.8.3-2.1,1.5-2.8,9.3-5.2,5-1.6,10.1-2.9,11.5-2.9,4.8-.1,7-1.3,8.6-4.5,1.3-2.8,1.3-3.7.2-5.5s-1-2.4,0-2.7c.6-.3,1.2-.8,1.2-1.3,0-.9-10.3,1.6-13.3,3.2a18.29,18.29,0,0,0-3.8,2.9c-3.1,3.1-4.6,2.3-6.8-3.6a41.06,41.06,0,0,1-2.1-6.5.92.92,0,0,0-.9-1c-.5,0-2.8-3.6-5-8l-4.2-8,2.6-1a15.27,15.27,0,0,1,4.8-1c3.5,0,4.7-1.4,4.9-5.3.1-2,.6-3.7,1.2-3.7s1.7-.9,2.4-2.1c1.1-1.7,1-2.2-.7-3.7s-1.9-2.1-.8-5.5c.7-2.3,1.7-3.5,2.4-3.2,2.8,1,.9-3.2-2.8-6.4-6.6-5.7-20.8-7.5-30-3.8-6.1,2.4-11.9,6.8-11.9,9a41.74,41.74,0,0,0,1.5,6.3,13,13,0,0,0,5.5,7.8c4.8,3.6,5.8,6.1,3.5,8.6-2.5,2.8-15.9,8.9-21.8,10a64.27,64.27,0,0,0-12.2,4.5c-3.8,1.9-7.6,3.5-8.2,3.5-2.8,0-2.5,4.9.6,10a43.31,43.31,0,0,1,3.1,5.6c0,1.1,9,12.9,12.1,15.9,2.7,2.6,6.9,9.6,6.9,11.6,0,.3-3.2,2.3-7,4.4-6.5,3.4-7.3,4.1-9.5,9.2a33.3,33.3,0,0,0-2.5,6.9c0,2-3.2,8.6-5.3,10.9-2.6,2.9-10.7,15-10.7,16.1,0,.5-1.1,1.9-2.5,3.2a19.19,19.19,0,0,0-3.7,5.8c-.6,1.9-1.8,3.4-2.5,3.4s-1.7.9-2.3,2a3.57,3.57,0,0,1-2.6,2c-2.2,0-8.2,3.3-14.2,7.8-4.6,3.5-17.1,17.9-17.2,19.9-.1,1.8-3.7,4.9-7.1,6a35.51,35.51,0,0,1-9.7,1.3c-4.9,0-6.6.4-8.2,2-3.2,3.2-2.6,9.4,1.9,19.2,5.8,12.6,7.4,13.7,20.9,15.3,4,.5,7.8-.7,9.4-3,1-1.4-1.2-2.5-4.9-2.5s-4.1-1.2-2.1-5.5c.9-2.1.9-3.1-.1-4.8-1.2-1.8-1-2.3,1.8-4.6,1.7-1.4,3.1-3.5,3.1-4.6,0-4.1,33.3-33.5,37.9-33.5,2.5,0,11.6-4.6,14.8-7.3,1.5-1.4,5.1-4.5,7.9-6.8a107.91,107.91,0,0,0,9-8.8c2.2-2.4,6.3-6.8,9.2-9.8s5.2-6.1,5.2-6.9c0-2,2.4-1.7,4.6.6,1,1.2,2.8,2.8,3.8,3.8s4.6,4.2,8,7.3,7.7,7,9.6,8.7l3.5,3.1-2.6,2.8a24.46,24.46,0,0,0-3.8,5c-.6,1.3-1.7,2.3-2.4,2.3s-3.9,2-7.2,4.5-6.5,4.5-7.1,4.5c-1.2,0-11.4,11.3-11.4,12.7,0,1-11.4,10.3-12.8,10.3a4.29,4.29,0,0,0-2.2,1.5,3.12,3.12,0,0,1-3.3.9c-1-.3-4.8-.3-8.3.1l-6.4.7v3.6a38,38,0,0,0,1.5,8.6,36.86,36.86,0,0,1,1.5,8.2,25.85,25.85,0,0,0,2.2,8.2c2.1,4.7,2.5,5.1,6.6,5.7,5.1.8,7.2-.5,7.2-4.4,0-5.3,3.1-12.3,6.2-14,5.2-2.8,7.8-5.2,7.8-7.1s2.7-4,4.9-4"></path><path class="cls-3" d="M304.86,180.39a8.48,8.48,0,0,0,1.13-6.22,116.94,116.94,0,0,0-4.6-12.2c-2.9-6.7-4.9-9.5-12.4-17-10.6-10.7-15.5-17.5-14.2-19.6a9.36,9.36,0,0,0,.9-4.2c0-2.9,1.4-5.9,4.2-8.8,1.5-1.6,2.3-4.3,3-10.8.3-2.1,1.5-2.8,9.3-5.2,5-1.6,10.1-2.9,11.5-2.9,4.8-.1,7-1.3,8.6-4.5,1.3-2.8,1.3-3.7.2-5.5s-1-2.4,0-2.7c.6-.3,1.2-.8,1.2-1.3,0-.9-10.3,1.6-13.3,3.2a18.29,18.29,0,0,0-3.8,2.9c-3.1,3.1-4.6,2.3-6.8-3.6a41.06,41.06,0,0,1-2.1-6.5.92.92,0,0,0-.9-1c-.5,0-2.8-3.6-5-8l-4.2-8,2.6-1a15.27,15.27,0,0,1,4.8-1c3.5,0,4.7-1.4,4.9-5.3.1-2,.6-3.7,1.2-3.7s1.7-.9,2.4-2.1c1.1-1.7,1-2.2-.7-3.7s-1.9-2.1-.8-5.5c.7-2.3,1.7-3.5,2.4-3.2,2.8,1,.9-3.2-2.8-6.4-6.6-5.7-20.8-7.5-30-3.8-6.1,2.4-11.9,6.8-11.9,9a41.74,41.74,0,0,0,1.5,6.3,13,13,0,0,0,5.5,7.8c4.8,3.6,5.8,6.1,3.5,8.6-2.5,2.8-15.9,8.9-21.8,10a64.27,64.27,0,0,0-12.2,4.5c-3.8,1.9-7.6,3.5-8.2,3.5-2.8,0-2.5,4.9.6,10a43.31,43.31,0,0,1,3.1,5.6c0,1.1,9,12.9,12.1,15.9,2.7,2.6,6.9,9.6,6.9,11.6,0,.3-3.2,2.3-7,4.4-6.5,3.4-7.3,4.1-9.5,9.2a33.3,33.3,0,0,0-2.5,6.9c0,2-3.2,8.6-5.3,10.9-2.6,2.9-10.7,15-10.7,16.1,0,.5-1.1,1.9-2.5,3.2a19.19,19.19,0,0,0-3.7,5.8c-.6,1.9-1.8,3.4-2.5,3.4s-1.7.9-2.3,2a3.57,3.57,0,0,1-2.6,2c-2.2,0-8.2,3.3-14.2,7.8-4.6,3.5-17.1,17.9-17.2,19.9-.1,1.8-3.7,4.9-7.1,6a35.51,35.51,0,0,1-9.7,1.3c-4.9,0-6.6.4-8.2,2-3.2,3.2-2.6,9.4,1.9,19.2,5.8,12.6,7.4,13.7,20.9,15.3,4,.5,7.8-.7,9.4-3,1-1.4-1.2-2.5-4.9-2.5s-4.1-1.2-2.1-5.5c.9-2.1.9-3.1-.1-4.8-1.2-1.8-1-2.3,1.8-4.6,1.7-1.4,3.1-3.5,3.1-4.6,0-4.1,33.3-33.5,37.9-33.5,2.5,0,11.6-4.6,14.8-7.3,1.5-1.4,5.1-4.5,7.9-6.8a107.91,107.91,0,0,0,9-8.8c2.2-2.4,6.3-6.8,9.2-9.8s5.2-6.1,5.2-6.9c0-2,2.4-1.7,4.6.6,1,1.2,2.8,2.8,3.8,3.8s4.6,4.2,8,7.3,7.7,7,9.6,8.7l3.5,3.1-2.6,2.8a24.46,24.46,0,0,0-3.8,5c-.6,1.3-1.7,2.3-2.4,2.3s-3.9,2-7.2,4.5-6.5,4.5-7.1,4.5c-1.2,0-11.4,11.3-11.4,12.7,0,1-11.4,10.3-12.8,10.3a4.29,4.29,0,0,0-2.2,1.5,3.12,3.12,0,0,1-3.3.9c-1-.3-4.8-.3-8.3.1l-6.4.7v3.6a38,38,0,0,0,1.5,8.6,36.86,36.86,0,0,1,1.5,8.2,25.85,25.85,0,0,0,2.2,8.2c2.1,4.7,2.5,5.1,6.6,5.7,5.1.8,7.2-.5,7.2-4.4,0-5.3,3.1-12.3,6.2-14,5.2-2.8,7.8-5.2,7.8-7.1s2.7-4,4.9-4"></path><path class="cls-4" d="M189.86,180.39a8.48,8.48,0,0,0,1.13-6.22,116.94,116.94,0,0,0-4.6-12.2c-2.9-6.7-4.9-9.5-12.4-17-10.6-10.7-15.5-17.5-14.2-19.6a9.36,9.36,0,0,0,.9-4.2c0-2.9,1.4-5.9,4.2-8.8,1.5-1.6,2.3-4.3,3-10.8.3-2.1,1.5-2.8,9.3-5.2,5-1.6,10.1-2.9,11.5-2.9,4.8-.1,7-1.3,8.6-4.5,1.3-2.8,1.3-3.7.2-5.5s-1-2.4,0-2.7c.6-.3,1.2-.8,1.2-1.3,0-.9-10.3,1.6-13.3,3.2a18.29,18.29,0,0,0-3.8,2.9c-3.1,3.1-4.6,2.3-6.8-3.6a41.06,41.06,0,0,1-2.1-6.5.92.92,0,0,0-.9-1c-.5,0-2.8-3.6-5-8l-4.2-8,2.6-1a15.27,15.27,0,0,1,4.8-1c3.5,0,4.7-1.4,4.9-5.3.1-2,.6-3.7,1.2-3.7s1.7-.9,2.4-2.1c1.1-1.7,1-2.2-.7-3.7s-1.9-2.1-.8-5.5c.7-2.3,1.7-3.5,2.4-3.2,2.8,1,.9-3.2-2.8-6.4-6.6-5.7-20.8-7.5-30-3.8-6.1,2.4-11.9,6.8-11.9,9a41.74,41.74,0,0,0,1.5,6.3,13,13,0,0,0,5.5,7.8c4.8,3.6,5.8,6.1,3.5,8.6-2.5,2.8-15.9,8.9-21.8,10a64.27,64.27,0,0,0-12.2,4.5c-3.8,1.9-7.6,3.5-8.2,3.5-2.8,0-2.5,4.9.6,10a43.31,43.31,0,0,1,3.1,5.6c0,1.1,9,12.9,12.1,15.9,2.7,2.6,6.9,9.6,6.9,11.6,0,.3-3.2,2.3-7,4.4-6.5,3.4-7.3,4.1-9.5,9.2a33.3,33.3,0,0,0-2.5,6.9c0,2-3.2,8.6-5.3,10.9-2.6,2.9-10.7,15-10.7,16.1,0,.5-1.1,1.9-2.5,3.2a19.19,19.19,0,0,0-3.7,5.8c-.6,1.9-1.8,3.4-2.5,3.4s-1.7.9-2.3,2a3.57,3.57,0,0,1-2.6,2c-2.2,0-8.2,3.3-14.2,7.8-4.6,3.5-17.1,17.9-17.2,19.9-.1,1.8-3.7,4.9-7.1,6a35.51,35.51,0,0,1-9.7,1.3c-4.9,0-6.6.4-8.2,2-3.2,3.2-2.6,9.4,1.9,19.2,5.8,12.6,7.4,13.7,20.9,15.3,4,.5,7.8-.7,9.4-3,1-1.4-1.2-2.5-4.9-2.5s-4.1-1.2-2.1-5.5c.9-2.1.9-3.1-.1-4.8-1.2-1.8-1-2.3,1.8-4.6,1.7-1.4,3.1-3.5,3.1-4.6,0-4.1,33.3-33.5,37.9-33.5,2.5,0,11.6-4.6,14.8-7.3,1.5-1.4,5.1-4.5,7.9-6.8a107.91,107.91,0,0,0,9-8.8c2.2-2.4,6.3-6.8,9.2-9.8s5.2-6.1,5.2-6.9c0-2,2.4-1.7,4.6.6,1,1.2,2.8,2.8,3.8,3.8s4.6,4.2,8,7.3,7.7,7,9.6,8.7l3.5,3.1-2.6,2.8a24.46,24.46,0,0,0-3.8,5c-.6,1.3-1.7,2.3-2.4,2.3s-3.9,2-7.2,4.5-6.5,4.5-7.1,4.5c-1.2,0-11.4,11.3-11.4,12.7,0,1-11.4,10.3-12.8,10.3a4.29,4.29,0,0,0-2.2,1.5,3.12,3.12,0,0,1-3.3.9c-1-.3-4.8-.3-8.3.1l-6.4.7v3.6a38,38,0,0,0,1.5,8.6,36.86,36.86,0,0,1,1.5,8.2,25.85,25.85,0,0,0,2.2,8.2c2.1,4.7,2.5,5.1,6.6,5.7,5.1.8,7.2-.5,7.2-4.4,0-5.3,3.1-12.3,6.2-14,5.2-2.8,7.8-5.2,7.8-7.1s2.7-4,4.9-4"></path></g></svg>