<?xml version="1.0" encoding="us-ascii" standalone="no"?><svg xmlns="http://www.w3.org/2000/svg" xmlns:xlink="http://www.w3.org/1999/xlink" contentStyleType="text/css" height="693px" preserveAspectRatio="none" style="width:1284px;height:693px;background:#FFFFFF;" version="1.1" viewBox="0 0 1284 693" width="1284px" zoomAndPan="magnify"><defs/><g><!--class footer--><g id="elem_footer"><rect codeLine="5" fill="#F1F1F1" height="86.1358" id="footer" rx="2.5" ry="2.5" style="stroke:#90EE90;stroke-width:0.5;" width="104" x="403.4" y="599.88"/><ellipse cx="432.8" cy="615.88" fill="#ADD1B2" rx="11" ry="11" style="stroke:#181818;stroke-width:1.0;"/><path d="M432.2687,622.8019 Q430.5187,622.8019 429.3781,622.0675 Q428.2531,621.3175 427.6906,619.9738 Q427.1437,618.6144 427.1437,616.8175 Q427.1437,614.7863 427.8,613.3331 Q428.4562,611.88 429.7375,611.0988 Q431.0187,610.3175 432.8937,610.3175 Q433.7844,610.3175 434.4562,610.505 Q435.1281,610.6769 435.8156,611.0206 L435.0031,613.0363 Q434.3781,612.7238 433.8312,612.5988 Q433.3,612.4738 432.8156,612.4738 Q431.6437,612.4738 430.9406,613.005 Q430.2375,613.5363 429.9406,614.4894 Q429.6437,615.4425 429.6437,616.7081 Q429.6437,618.7238 430.3625,619.6925 Q431.0812,620.6456 432.675,620.6456 Q433.2687,620.6456 433.8937,620.4894 Q434.5187,620.3331 435.3469,619.9581 L435.3469,622.1769 Q434.6125,622.4894 433.8156,622.6456 Q433.0344,622.8019 432.2687,622.8019 Z " fill="#000000"/><text fill="#000000" font-family="sans-serif" font-size="14" lengthAdjust="spacing" textLength="40" x="450" y="621.312">footer</text><line style="stroke:#90EE90;stroke-width:0.5;" x1="404.4" x2="506.4" y1="631.88" y2="631.88"/><rect fill="none" height="6" style="stroke:#C82930;stroke-width:1.0;" width="6" x="411.4" y="643.914"/><text fill="#000000" font-family="sans-serif" font-size="14" lengthAdjust="spacing" textLength="78" x="423.4" y="650.8459">ContactInfo</text><rect fill="none" height="6" style="stroke:#C82930;stroke-width:1.0;" width="6" x="411.4" y="662.9819"/><text fill="#000000" font-family="sans-serif" font-size="14" lengthAdjust="spacing" textLength="73" x="423.4" y="669.9139">SocialLinks</text><line style="stroke:#90EE90;stroke-width:0.5;" x1="404.4" x2="506.4" y1="678.0158" y2="678.0158"/></g><!--class header--><g id="elem_header"><rect codeLine="10" fill="#F1F1F1" height="86.1358" id="header" rx="2.5" ry="2.5" style="stroke:#90EE90;stroke-width:0.5;" width="355" x="374.9" y="182.74"/><ellipse cx="524.15" cy="198.74" fill="#ADD1B2" rx="11" ry="11" style="stroke:#181818;stroke-width:1.0;"/><path d="M523.6188,205.6619 Q521.8688,205.6619 520.7281,204.9275 Q519.6031,204.1775 519.0406,202.8338 Q518.4938,201.4744 518.4938,199.6775 Q518.4938,197.6463 519.15,196.1931 Q519.8063,194.74 521.0875,193.9588 Q522.3688,193.1775 524.2438,193.1775 Q525.1344,193.1775 525.8063,193.365 Q526.4781,193.5369 527.1656,193.8806 L526.3531,195.8963 Q525.7281,195.5838 525.1813,195.4588 Q524.65,195.3338 524.1656,195.3338 Q522.9938,195.3338 522.2906,195.865 Q521.5875,196.3963 521.2906,197.3494 Q520.9938,198.3025 520.9938,199.5681 Q520.9938,201.5838 521.7125,202.5525 Q522.4313,203.5056 524.025,203.5056 Q524.6188,203.5056 525.2438,203.3494 Q525.8688,203.1931 526.6969,202.8181 L526.6969,205.0369 Q525.9625,205.3494 525.1656,205.5056 Q524.3844,205.6619 523.6188,205.6619 Z " fill="#000000"/><text fill="#000000" font-family="sans-serif" font-size="14" lengthAdjust="spacing" textLength="48" x="544.65" y="204.172">header</text><line style="stroke:#90EE90;stroke-width:0.5;" x1="375.9" x2="728.9" y1="214.74" y2="214.74"/><rect fill="none" height="6" style="stroke:#C82930;stroke-width:1.0;" width="6" x="382.9" y="226.774"/><text fill="#000000" font-family="sans-serif" font-size="14" lengthAdjust="spacing" textLength="32" x="394.9" y="233.7059">Logo</text><line style="stroke:#90EE90;stroke-width:0.5;" x1="375.9" x2="728.9" y1="241.8079" y2="241.8079"/><rect fill="#F24D5C" height="6" style="stroke:#C82930;stroke-width:1.0;" width="6" x="382.9" y="253.8419"/><text fill="#000000" font-family="sans-serif" font-size="14" lengthAdjust="spacing" textLength="329" x="394.9" y="260.7739">NavLinks (Po&#269;etna, Dokumenti, Dogadjaji, Knjige)</text></g><!--class WebPage--><g id="elem_WebPage"><rect codeLine="16" fill="#F1F1F1" height="105.2038" id="WebPage" rx="2.5" ry="2.5" style="stroke:#181818;stroke-width:0.5;" width="95" x="504.9" y="7"/><ellipse cx="519.9" cy="23" fill="#ADD1B2" rx="11" ry="11" style="stroke:#181818;stroke-width:1.0;"/><path d="M519.3688,29.9219 Q517.6188,29.9219 516.4781,29.1875 Q515.3531,28.4375 514.7906,27.0938 Q514.2438,25.7344 514.2438,23.9375 Q514.2438,21.9063 514.9,20.4531 Q515.5563,19 516.8375,18.2188 Q518.1188,17.4375 519.9938,17.4375 Q520.8844,17.4375 521.5563,17.625 Q522.2281,17.7969 522.9156,18.1406 L522.1031,20.1563 Q521.4781,19.8438 520.9313,19.7188 Q520.4,19.5938 519.9156,19.5938 Q518.7438,19.5938 518.0406,20.125 Q517.3375,20.6563 517.0406,21.6094 Q516.7438,22.5625 516.7438,23.8281 Q516.7438,25.8438 517.4625,26.8125 Q518.1813,27.7656 519.775,27.7656 Q520.3688,27.7656 520.9938,27.6094 Q521.6188,27.4531 522.4469,27.0781 L522.4469,29.2969 Q521.7125,29.6094 520.9156,29.7656 Q520.1344,29.9219 519.3688,29.9219 Z " fill="#000000"/><text fill="#000000" font-family="sans-serif" font-size="14" lengthAdjust="spacing" textLength="63" x="533.9" y="28.432">WebPage</text><line style="stroke:#181818;stroke-width:0.5;" x1="505.9" x2="598.9" y1="39" y2="39"/><text fill="#000000" font-family="sans-serif" font-size="14" lengthAdjust="spacing" textLength="40" x="510.9" y="57.9659">footer</text><text fill="#000000" font-family="sans-serif" font-size="14" lengthAdjust="spacing" textLength="34" x="510.9" y="77.0339">Main</text><text fill="#000000" font-family="sans-serif" font-size="14" lengthAdjust="spacing" textLength="48" x="510.9" y="96.1018">header</text><line style="stroke:#181818;stroke-width:0.5;" x1="505.9" x2="598.9" y1="104.2038" y2="104.2038"/></g><!--class Index--><g id="elem_Index"><rect codeLine="23" fill="#F1F1F1" height="181.4754" id="Index" rx="2.5" ry="2.5" style="stroke:#181818;stroke-width:0.5;" width="293" x="984.9" y="357.41"/><ellipse cx="1108.15" cy="373.41" fill="#ADD1B2" rx="11" ry="11" style="stroke:#181818;stroke-width:1.0;"/><path d="M1107.6188,380.3319 Q1105.8688,380.3319 1104.7281,379.5975 Q1103.6031,378.8475 1103.0406,377.5037 Q1102.4938,376.1444 1102.4938,374.3475 Q1102.4938,372.3162 1103.15,370.8631 Q1103.8063,369.41 1105.0875,368.6287 Q1106.3688,367.8475 1108.2438,367.8475 Q1109.1344,367.8475 1109.8063,368.035 Q1110.4781,368.2069 1111.1656,368.5506 L1110.3531,370.5662 Q1109.7281,370.2537 1109.1813,370.1287 Q1108.65,370.0037 1108.1656,370.0037 Q1106.9938,370.0037 1106.2906,370.535 Q1105.5875,371.0662 1105.2906,372.0194 Q1104.9938,372.9725 1104.9938,374.2381 Q1104.9938,376.2537 1105.7125,377.2225 Q1106.4313,378.1756 1108.025,378.1756 Q1108.6188,378.1756 1109.2438,378.0194 Q1109.8688,377.8631 1110.6969,377.4881 L1110.6969,379.7069 Q1109.9625,380.0194 1109.1656,380.1756 Q1108.3844,380.3319 1107.6188,380.3319 Z " fill="#000000"/><text fill="#000000" font-family="sans-serif" font-size="14" lengthAdjust="spacing" textLength="38" x="1128.65" y="378.842">Index</text><line style="stroke:#181818;stroke-width:0.5;" x1="985.9" x2="1276.9" y1="389.41" y2="389.41"/><ellipse cx="995.9" cy="404.444" fill="#000000" rx="3" ry="3" style="stroke:#000000;stroke-width:1.0;"/><text fill="#0000FF" font-family="sans-serif" font-size="14" lengthAdjust="spacing" textLength="102" x="1004.9" y="408.3759">require header</text><text fill="#000000" font-family="sans-serif" font-size="14" font-weight="bold" lengthAdjust="spacing" textLength="34" x="1004.9" y="427.4439">Main</text><rect fill="none" height="6" style="stroke:#C82930;stroke-width:1.0;" width="6" x="992.9" y="439.5798"/><text fill="#000000" font-family="sans-serif" font-size="14" lengthAdjust="spacing" textLength="267" x="1004.9" y="446.5118">iz buildera komponeta landingPega ID1</text><rect fill="none" height="6" style="stroke:#C82930;stroke-width:1.0;" width="6" x="992.9" y="458.6477"/><text fill="#000000" font-family="sans-serif" font-size="14" lengthAdjust="spacing" textLength="36" x="1004.9" y="465.5797">lpID2</text><rect fill="none" height="6" style="stroke:#C82930;stroke-width:1.0;" width="6" x="992.9" y="477.7156"/><text fill="#000000" font-family="sans-serif" font-size="14" lengthAdjust="spacing" textLength="36" x="1004.9" y="484.6476">lpID3</text><rect fill="none" height="6" style="stroke:#C82930;stroke-width:1.0;" width="6" x="992.9" y="496.7835"/><text fill="#000000" font-family="sans-serif" font-size="14" lengthAdjust="spacing" textLength="36" x="1004.9" y="503.7155">lpID4</text><ellipse cx="995.9" cy="518.8515" fill="#000000" rx="3" ry="3" style="stroke:#000000;stroke-width:1.0;"/><text fill="#FFA500" font-family="sans-serif" font-size="14" lengthAdjust="spacing" textLength="94" x="1004.9" y="522.7834">require footer</text><line style="stroke:#181818;stroke-width:0.5;" x1="985.9" x2="1276.9" y1="530.8854" y2="530.8854"/></g><!--class Dokumenti--><g id="elem_Dokumenti"><rect codeLine="33" fill="#F1F1F1" height="143.3396" id="Dokumenti" rx="2.5" ry="2.5" style="stroke:#181818;stroke-width:0.5;" width="270" x="680.4" y="376.48"/><ellipse cx="774.65" cy="392.48" fill="#ADD1B2" rx="11" ry="11" style="stroke:#181818;stroke-width:1.0;"/><path d="M774.1188,399.4019 Q772.3688,399.4019 771.2281,398.6675 Q770.1031,397.9175 769.5406,396.5737 Q768.9938,395.2144 768.9938,393.4175 Q768.9938,391.3862 769.65,389.9331 Q770.3063,388.48 771.5875,387.6987 Q772.8688,386.9175 774.7438,386.9175 Q775.6344,386.9175 776.3063,387.105 Q776.9781,387.2769 777.6656,387.6206 L776.8531,389.6362 Q776.2281,389.3237 775.6813,389.1987 Q775.15,389.0737 774.6656,389.0737 Q773.4938,389.0737 772.7906,389.605 Q772.0875,390.1362 771.7906,391.0894 Q771.4938,392.0425 771.4938,393.3081 Q771.4938,395.3237 772.2125,396.2925 Q772.9313,397.2456 774.525,397.2456 Q775.1188,397.2456 775.7438,397.0894 Q776.3688,396.9331 777.1969,396.5581 L777.1969,398.7769 Q776.4625,399.0894 775.6656,399.2456 Q774.8844,399.4019 774.1188,399.4019 Z " fill="#000000"/><text fill="#000000" font-family="sans-serif" font-size="14" lengthAdjust="spacing" textLength="73" x="795.15" y="397.912">Dokumenti</text><line style="stroke:#181818;stroke-width:0.5;" x1="681.4" x2="949.4" y1="408.48" y2="408.48"/><ellipse cx="691.4" cy="423.514" fill="#000000" rx="3" ry="3" style="stroke:#000000;stroke-width:1.0;"/><text fill="#0000FF" font-family="sans-serif" font-size="14" lengthAdjust="spacing" textLength="102" x="700.4" y="427.4459">require header</text><text fill="#000000" font-family="sans-serif" font-size="14" font-weight="bold" lengthAdjust="spacing" textLength="34" x="700.4" y="446.5139">Main</text><rect fill="none" height="6" style="stroke:#C82930;stroke-width:1.0;" width="6" x="688.4" y="458.6498"/><text fill="#000000" font-family="sans-serif" font-size="14" lengthAdjust="spacing" textLength="28" x="700.4" y="465.5818">TITL</text><rect fill="none" height="6" style="stroke:#C82930;stroke-width:1.0;" width="6" x="688.4" y="477.7177"/><text fill="#000000" font-family="sans-serif" font-size="14" lengthAdjust="spacing" textLength="244" x="700.4" y="484.6497">Dinamicka konvencija za dokumente</text><ellipse cx="691.4" cy="499.7856" fill="#000000" rx="3" ry="3" style="stroke:#000000;stroke-width:1.0;"/><text fill="#FFA500" font-family="sans-serif" font-size="14" lengthAdjust="spacing" textLength="94" x="700.4" y="503.7176">require footer</text><line style="stroke:#181818;stroke-width:0.5;" x1="681.4" x2="949.4" y1="511.8196" y2="511.8196"/></g><!--class Dogadjaji--><g id="elem_Dogadjaji"><rect codeLine="41" fill="#F1F1F1" height="143.3396" id="Dogadjaji" rx="2.5" ry="2.5" style="stroke:#181818;stroke-width:0.5;" width="187" x="458.9" y="376.48"/><ellipse cx="516.15" cy="392.48" fill="#ADD1B2" rx="11" ry="11" style="stroke:#181818;stroke-width:1.0;"/><path d="M515.6188,399.4019 Q513.8688,399.4019 512.7281,398.6675 Q511.6031,397.9175 511.0406,396.5737 Q510.4938,395.2144 510.4938,393.4175 Q510.4938,391.3862 511.15,389.9331 Q511.8063,388.48 513.0875,387.6987 Q514.3688,386.9175 516.2438,386.9175 Q517.1344,386.9175 517.8063,387.105 Q518.4781,387.2769 519.1656,387.6206 L518.3531,389.6362 Q517.7281,389.3237 517.1813,389.1987 Q516.65,389.0737 516.1656,389.0737 Q514.9938,389.0737 514.2906,389.605 Q513.5875,390.1362 513.2906,391.0894 Q512.9938,392.0425 512.9938,393.3081 Q512.9938,395.3237 513.7125,396.2925 Q514.4313,397.2456 516.025,397.2456 Q516.6188,397.2456 517.2438,397.0894 Q517.8688,396.9331 518.6969,396.5581 L518.6969,398.7769 Q517.9625,399.0894 517.1656,399.2456 Q516.3844,399.4019 515.6188,399.4019 Z " fill="#000000"/><text fill="#000000" font-family="sans-serif" font-size="14" lengthAdjust="spacing" textLength="64" x="536.65" y="397.912">Dogadjaji</text><line style="stroke:#181818;stroke-width:0.5;" x1="459.9" x2="644.9" y1="408.48" y2="408.48"/><ellipse cx="469.9" cy="423.514" fill="#000000" rx="3" ry="3" style="stroke:#000000;stroke-width:1.0;"/><text fill="#0000FF" font-family="sans-serif" font-size="14" lengthAdjust="spacing" textLength="102" x="478.9" y="427.4459">require header</text><text fill="#000000" font-family="sans-serif" font-size="14" font-weight="bold" lengthAdjust="spacing" textLength="34" x="478.9" y="446.5139">Main</text><rect fill="none" height="6" style="stroke:#C82930;stroke-width:1.0;" width="6" x="466.9" y="458.6498"/><text fill="#000000" font-family="sans-serif" font-size="14" lengthAdjust="spacing" textLength="28" x="478.9" y="465.5818">TITL</text><rect fill="none" height="6" style="stroke:#C82930;stroke-width:1.0;" width="6" x="466.9" y="477.7177"/><text fill="#000000" font-family="sans-serif" font-size="14" lengthAdjust="spacing" textLength="161" x="478.9" y="484.6497">konvencija za dogadjaje</text><ellipse cx="469.9" cy="499.7856" fill="#000000" rx="3" ry="3" style="stroke:#000000;stroke-width:1.0;"/><text fill="#FFA500" font-family="sans-serif" font-size="14" lengthAdjust="spacing" textLength="94" x="478.9" y="503.7176">require footer</text><line style="stroke:#181818;stroke-width:0.5;" x1="459.9" x2="644.9" y1="511.8196" y2="511.8196"/></g><!--class Knjige--><g id="elem_Knjige"><rect codeLine="49" fill="#F1F1F1" height="143.3396" id="Knjige" rx="2.5" ry="2.5" style="stroke:#181818;stroke-width:0.5;" width="128" x="295.4" y="376.48"/><ellipse cx="334.25" cy="392.48" fill="#ADD1B2" rx="11" ry="11" style="stroke:#181818;stroke-width:1.0;"/><path d="M333.7188,399.4019 Q331.9688,399.4019 330.8281,398.6675 Q329.7031,397.9175 329.1406,396.5737 Q328.5938,395.2144 328.5938,393.4175 Q328.5938,391.3862 329.25,389.9331 Q329.9063,388.48 331.1875,387.6987 Q332.4688,386.9175 334.3438,386.9175 Q335.2344,386.9175 335.9063,387.105 Q336.5781,387.2769 337.2656,387.6206 L336.4531,389.6362 Q335.8281,389.3237 335.2813,389.1987 Q334.75,389.0737 334.2656,389.0737 Q333.0938,389.0737 332.3906,389.605 Q331.6875,390.1362 331.3906,391.0894 Q331.0938,392.0425 331.0938,393.3081 Q331.0938,395.3237 331.8125,396.2925 Q332.5313,397.2456 334.125,397.2456 Q334.7188,397.2456 335.3438,397.0894 Q335.9688,396.9331 336.7969,396.5581 L336.7969,398.7769 Q336.0625,399.0894 335.2656,399.2456 Q334.4844,399.4019 333.7188,399.4019 Z " fill="#000000"/><text fill="#000000" font-family="sans-serif" font-size="14" lengthAdjust="spacing" textLength="43" x="353.55" y="397.912">Knjige</text><line style="stroke:#181818;stroke-width:0.5;" x1="296.4" x2="422.4" y1="408.48" y2="408.48"/><ellipse cx="306.4" cy="423.514" fill="#000000" rx="3" ry="3" style="stroke:#000000;stroke-width:1.0;"/><text fill="#0000FF" font-family="sans-serif" font-size="14" lengthAdjust="spacing" textLength="102" x="315.4" y="427.4459">require header</text><text fill="#000000" font-family="sans-serif" font-size="14" font-weight="bold" lengthAdjust="spacing" textLength="34" x="315.4" y="446.5139">Main</text><rect fill="none" height="6" style="stroke:#C82930;stroke-width:1.0;" width="6" x="303.4" y="458.6498"/><text fill="#000000" font-family="sans-serif" font-size="14" lengthAdjust="spacing" textLength="66" x="315.4" y="465.5818">KnjigeID1</text><rect fill="none" height="6" style="stroke:#C82930;stroke-width:1.0;" width="6" x="303.4" y="477.7177"/><text fill="#000000" font-family="sans-serif" font-size="14" lengthAdjust="spacing" textLength="66" x="315.4" y="484.6497">KnjigeID2</text><ellipse cx="306.4" cy="499.7856" fill="#000000" rx="3" ry="3" style="stroke:#000000;stroke-width:1.0;"/><text fill="#FFA500" font-family="sans-serif" font-size="14" lengthAdjust="spacing" textLength="94" x="315.4" y="503.7176">require footer</text><line style="stroke:#181818;stroke-width:0.5;" x1="296.4" x2="422.4" y1="511.8196" y2="511.8196"/></g><!--class StatickaStranica--><g id="elem_StatickaStranica"><rect codeLine="57" fill="#F1F1F1" height="143.3396" id="StatickaStranica" rx="2.5" ry="2.5" style="stroke:#181818;stroke-width:0.5;" width="188" x="72.4" y="376.48"/><ellipse cx="109.45" cy="392.48" fill="#ADD1B2" rx="11" ry="11" style="stroke:#181818;stroke-width:1.0;"/><path d="M108.9188,399.4019 Q107.1688,399.4019 106.0281,398.6675 Q104.9031,397.9175 104.3406,396.5737 Q103.7938,395.2144 103.7938,393.4175 Q103.7938,391.3862 104.45,389.9331 Q105.1063,388.48 106.3875,387.6987 Q107.6688,386.9175 109.5438,386.9175 Q110.4344,386.9175 111.1063,387.105 Q111.7781,387.2769 112.4656,387.6206 L111.6531,389.6362 Q111.0281,389.3237 110.4813,389.1987 Q109.95,389.0737 109.4656,389.0737 Q108.2938,389.0737 107.5906,389.605 Q106.8875,390.1362 106.5906,391.0894 Q106.2938,392.0425 106.2938,393.3081 Q106.2938,395.3237 107.0125,396.2925 Q107.7313,397.2456 109.325,397.2456 Q109.9188,397.2456 110.5438,397.0894 Q111.1688,396.9331 111.9969,396.5581 L111.9969,398.7769 Q111.2625,399.0894 110.4656,399.2456 Q109.6844,399.4019 108.9188,399.4019 Z " fill="#000000"/><text fill="#000000" font-family="sans-serif" font-size="14" lengthAdjust="spacing" textLength="107" x="128.35" y="397.912">StatickaStranica</text><line style="stroke:#181818;stroke-width:0.5;" x1="73.4" x2="259.4" y1="408.48" y2="408.48"/><ellipse cx="83.4" cy="423.514" fill="#000000" rx="3" ry="3" style="stroke:#000000;stroke-width:1.0;"/><text fill="#0000FF" font-family="sans-serif" font-size="14" lengthAdjust="spacing" textLength="102" x="92.4" y="427.4459">require header</text><text fill="#000000" font-family="sans-serif" font-size="14" font-weight="bold" lengthAdjust="spacing" textLength="34" x="92.4" y="446.5139">Main</text><rect fill="none" height="6" style="stroke:#C82930;stroke-width:1.0;" width="6" x="80.4" y="458.6498"/><text fill="#000000" font-family="sans-serif" font-size="14" lengthAdjust="spacing" textLength="137" x="92.4" y="465.5818">Pise sAdmin staticke</text><rect fill="none" height="6" style="stroke:#C82930;stroke-width:1.0;" width="6" x="80.4" y="477.7177"/><text fill="#000000" font-family="sans-serif" font-size="14" lengthAdjust="spacing" textLength="162" x="92.4" y="484.6497">moze se koristiti builder</text><ellipse cx="83.4" cy="499.7856" fill="#000000" rx="3" ry="3" style="stroke:#000000;stroke-width:1.0;"/><text fill="#FFA500" font-family="sans-serif" font-size="14" lengthAdjust="spacing" textLength="94" x="92.4" y="503.7176">require footer</text><line style="stroke:#181818;stroke-width:0.5;" x1="73.4" x2="259.4" y1="511.8196" y2="511.8196"/></g><!--class LandingPageComponents--><g id="elem_LandingPageComponents"><rect codeLine="67" fill="#F1F1F1" height="105.2038" id="LandingPageComponents" rx="2.5" ry="2.5" style="stroke:#181818;stroke-width:0.5;" width="205" x="787.9" y="173.21"/><ellipse cx="802.9" cy="189.21" fill="#ADD1B2" rx="11" ry="11" style="stroke:#181818;stroke-width:1.0;"/><path d="M802.3688,196.1319 Q800.6188,196.1319 799.4781,195.3975 Q798.3531,194.6475 797.7906,193.3038 Q797.2438,191.9444 797.2438,190.1475 Q797.2438,188.1163 797.9,186.6631 Q798.5563,185.21 799.8375,184.4288 Q801.1188,183.6475 802.9938,183.6475 Q803.8844,183.6475 804.5563,183.835 Q805.2281,184.0069 805.9156,184.3506 L805.1031,186.3663 Q804.4781,186.0538 803.9313,185.9288 Q803.4,185.8038 802.9156,185.8038 Q801.7438,185.8038 801.0406,186.335 Q800.3375,186.8663 800.0406,187.8194 Q799.7438,188.7725 799.7438,190.0381 Q799.7438,192.0538 800.4625,193.0225 Q801.1813,193.9756 802.775,193.9756 Q803.3688,193.9756 803.9938,193.8194 Q804.6188,193.6631 805.4469,193.2881 L805.4469,195.5069 Q804.7125,195.8194 803.9156,195.9756 Q803.1344,196.1319 802.3688,196.1319 Z " fill="#000000"/><text fill="#000000" font-family="sans-serif" font-size="14" lengthAdjust="spacing" textLength="173" x="816.9" y="194.642">LandingPageComponents</text><line style="stroke:#181818;stroke-width:0.5;" x1="788.9" x2="991.9" y1="205.21" y2="205.21"/><rect fill="none" height="6" style="stroke:#C82930;stroke-width:1.0;" width="6" x="795.9" y="217.244"/><text fill="#000000" font-family="sans-serif" font-size="14" lengthAdjust="spacing" textLength="92" x="807.9" y="224.1759">omponentID1</text><rect fill="none" height="6" style="stroke:#C82930;stroke-width:1.0;" width="6" x="795.9" y="236.3119"/><text fill="#000000" font-family="sans-serif" font-size="14" lengthAdjust="spacing" textLength="101" x="807.9" y="243.2439">ComponentID2</text><rect fill="none" height="6" style="stroke:#C82930;stroke-width:1.0;" width="6" x="795.9" y="255.3798"/><text fill="#000000" font-family="sans-serif" font-size="14" lengthAdjust="spacing" textLength="101" x="807.9" y="262.3118">ComponentID3</text><line style="stroke:#181818;stroke-width:0.5;" x1="788.9" x2="991.9" y1="270.4138" y2="270.4138"/></g><!--reverse link Index to footer--><g id="link_Index_footer"><path codeLine="74" d="M978.8682,534.9296 C973.5182,537.1496 973.71,536.94 968.4,538.88 C806.31,598.19 602.24,626.24 507.79,636.76 " fill="none" id="Index-backto-footer" style="stroke:#181818;stroke-width:1.0;"/><polygon fill="#181818" points="984.41,532.63,974.5642,532.3848,979.7918,534.5463,977.6303,539.7739,984.41,532.63" style="stroke:#181818;stroke-width:1.0;"/></g><!--link header to Index--><g id="link_header_Index"><path codeLine="75" d="M713.62,269.3 C791.86,291.96 886.44,322.39 968.4,357.41 C973.75,359.69 973.7017,359.5869 979.1217,362.0869 " fill="none" id="header-to-Index" style="stroke:#181818;stroke-width:1.0;"/><polygon fill="#181818" points="984.57,364.6,978.0729,357.1982,980.0297,362.5058,974.7221,364.4626,984.57,364.6" style="stroke:#181818;stroke-width:1.0;"/></g><!--reverse link Dokumenti to footer--><g id="link_Dokumenti_footer"><path codeLine="77" d="M691.5971,523.2508 C680.3671,529.6508 674.32,532.97 663.4,538.88 C611.14,567.21 550.05,597.11 507.66,617.37 " fill="none" id="Dokumenti-backto-footer" style="stroke:#181818;stroke-width:1.0;"/><polygon fill="#181818" points="696.81,520.28,687.0101,521.261,692.4659,522.7557,690.9712,528.2115,696.81,520.28" style="stroke:#181818;stroke-width:1.0;"/></g><!--link header to Dokumenti--><g id="link_header_Dokumenti"><path codeLine="78" d="M603.11,269.29 C639.24,299.55 684.0409,337.0866 726.1009,372.3266 " fill="none" id="header-to-Dokumenti" style="stroke:#181818;stroke-width:1.0;"/><polygon fill="#181818" points="730.7,376.18,726.3703,367.3339,726.8674,372.9689,721.2325,373.466,730.7,376.18" style="stroke:#181818;stroke-width:1.0;"/></g><!--reverse link Dogadjaji to footer--><g id="link_Dogadjaji_footer"><path codeLine="80" d="M514.003,525.4797 C500.603,552.1097 488.5,576.16 476.8,599.42 " fill="none" id="Dogadjaji-backto-footer" style="stroke:#181818;stroke-width:1.0;"/><polygon fill="#181818" points="516.7,520.12,509.0814,526.3616,514.4525,524.5864,516.2277,529.9575,516.7,520.12" style="stroke:#181818;stroke-width:1.0;"/></g><!--link header to Dogadjaji--><g id="link_header_Dogadjaji"><path codeLine="81" d="M552.4,269.29 C552.4,299.55 552.4,334.94 552.4,370.18 " fill="none" id="header-to-Dogadjaji" style="stroke:#181818;stroke-width:1.0;"/><polygon fill="#181818" points="552.4,376.18,556.4,367.18,552.4,371.18,548.4,367.18,552.4,376.18" style="stroke:#181818;stroke-width:1.0;"/></g><!--reverse link Knjige to footer--><g id="link_Knjige_footer"><path codeLine="83" d="M397.4144,525.491 C410.6744,552.121 422.65,576.16 434.23,599.42 " fill="none" id="Knjige-backto-footer" style="stroke:#181818;stroke-width:1.0;"/><polygon fill="#181818" points="394.74,520.12,395.1709,529.9594,396.9687,524.5958,402.3323,526.3936,394.74,520.12" style="stroke:#181818;stroke-width:1.0;"/></g><!--link header to Knjige--><g id="link_header_Knjige"><path codeLine="84" d="M515.19,269.29 C488.68,299.55 456.3828,336.4261 425.5228,371.6661 " fill="none" id="header-to-Knjige" style="stroke:#181818;stroke-width:1.0;"/><polygon fill="#181818" points="421.57,376.18,430.5085,372.0444,424.864,372.4184,424.49,366.774,421.57,376.18" style="stroke:#181818;stroke-width:1.0;"/></g><!--reverse link StatickaStranica to footer--><g id="link_StatickaStranica_footer"><path codeLine="86" d="M256.5352,523.9197 C265.0752,530.3797 268.93,533.06 277.4,538.88 C318.16,566.91 366.91,594.78 403.09,614.46 " fill="none" id="StatickaStranica-backto-footer" style="stroke:#181818;stroke-width:1.0;"/><polygon fill="#181818" points="251.75,520.3,256.5146,528.9197,255.7376,523.3164,261.3409,522.5394,251.75,520.3" style="stroke:#181818;stroke-width:1.0;"/></g><!--link header to StatickaStranica--><g id="link_header_StatickaStranica"><path codeLine="87" d="M448.14,269.33 C395.4,292.57 331.31,323.49 277.4,357.41 C268.28,363.15 263.8838,365.9756 254.8538,372.6156 " fill="none" id="header-to-StatickaStranica" style="stroke:#181818;stroke-width:1.0;"/><polygon fill="#181818" points="250.02,376.17,259.6404,374.0609,254.0482,373.208,254.9011,367.6158,250.02,376.17" style="stroke:#181818;stroke-width:1.0;"/></g><!--link LandingPageComponents to Index--><g id="link_LandingPageComponents_Index"><path codeLine="92" d="M947.21,278.75 C972.82,302.16 999.3813,326.442 1028.5813,353.132 " fill="none" id="LandingPageComponents-to-Index" style="stroke:#181818;stroke-width:1.0;"/><polygon fill="#181818" points="1033.01,357.18,1029.0656,348.1555,1029.3194,353.8066,1023.6682,354.0604,1033.01,357.18" style="stroke:#181818;stroke-width:1.0;"/><text fill="#000000" font-family="sans-serif" font-size="13" lengthAdjust="spacing" textLength="30" x="997.47" y="323.307">Main</text></g><!--link WebPage to LandingPageComponents--><g id="link_WebPage_LandingPageComponents"><path codeLine="93" d="M600.11,83.78 C648.61,107.34 719.8733,141.9578 782.2333,172.2578 " fill="none" id="WebPage-to-LandingPageComponents" style="stroke:#181818;stroke-width:1.0;"/><polygon fill="#181818" points="787.63,174.88,781.2831,167.3489,783.1328,172.6948,777.7869,174.5445,787.63,174.88" style="stroke:#181818;stroke-width:1.0;"/></g><!--link WebPage to footer--><g id="link_WebPage_footer"><path codeLine="95" d="M504.41,72.15 C399.94,100.19 153.43,182.8 55.4,357.41 C15.92,427.74 6,475.13 55.4,538.88 C97.91,593.72 298.7325,623.837 397.1625,635.617 " fill="none" id="WebPage-to-footer" style="stroke:#181818;stroke-width:1.0;"/><polygon fill="#181818" points="403.12,636.33,394.6591,631.2889,398.1554,635.7358,393.7084,639.2322,403.12,636.33" style="stroke:#181818;stroke-width:1.0;"/></g><!--link WebPage to header--><g id="link_WebPage_header"><path codeLine="96" d="M552.4,112.56 C552.4,135.01 552.4,154.96 552.4,176.25 " fill="none" id="WebPage-to-header" style="stroke:#181818;stroke-width:1.0;"/><polygon fill="#181818" points="552.4,182.25,556.4,173.25,552.4,177.25,548.4,173.25,552.4,182.25" style="stroke:#181818;stroke-width:1.0;"/></g><!--SRC=[fLNTRjfG3BxFKxZgHTkfg1tTJH52gW0XDDOYGDhbP1AJdlmSioJGATKUOM-r1vl3EGaXe6bYLyUn_TdVyR6T2uzMIXFCXlt5q_DeCWGtmZHrBgn-D1iEdx_rNoOlCxXyl1yE7-yTvmf6f2d1IEMyHQrWnPnH0WfU2JqHhdd90OaXfuWqtpZxyDRriXxutMb1dtM6RZRMAvQlERiAeudIOUhyT6fmc-08Fc6_m3tZTWU2wod__aMPnbiOSBY9IMUg47tq0Wn4_Am3vTDD4VqAlj9oYZv1Y0okkChLXFnRWkir9RNifT-xOwxXV46b7SF9H9eBLYkN84N8yJMZBSSYbBpBKjLYZhL7FoJYXwxB4IUTPRIXNaBVDoeX2-lUxKmzfxli5HcxTykUN5RbiDoeI1mGGexNh2b3Y51xIljJyX76Wu_Y5wt7WxOz7-pvgSh7GjZVPpJygem7nQygUHRTnNWnaMEWDCRA3GlEUalQLK5HAl1iS3gFcNtO_s7Mv6D2diN7TDTPP0pKl5mfjy_XCCymA-fiMnBFOJDLgRJoanSh3Qc9HquhvboqCYwSg3HJqW-s3_-TfepAn3Qg35JVTA_EKjXIZf8BOouUOJSSjJkTnXGBeFmoXUllFzk7dm_Ld58aSzgfTfT7u7D2jzMeYiBZYEoeGskpRlKi8UlIylXDLyf3nsfMcivxGnDWM_WOK1eE0QOvcjvMU-ZQR8KcwCZ-bmTQS_b4TdM52UUmMuId0QsoGj0nRkKMBGmd8RMDNClM_Caaw8ci0bb_IN4SnBLhjguoi3y0]--></g></svg>